M48
METRIC,TZ
T01C3.200
T02C1.400
T03C1.000
%
G90
G05
T01
X004000Y004000
X086000Y004000
X004000Y056000
X086000Y056000
T02
X008000Y037620
X008000Y032540
X008000Y027460
X008000Y022380
T03
X020000Y033810
X020000Y031270
X020000Y028730
X020000Y026190
X035240Y033810
X035240Y031270
X035240Y028730
X035240Y026190
X046000Y012000
X048540Y012000
X051080Y012000
X053620Y012000
X056160Y012000
X058700Y012000
X061240Y012000
X063780Y012000
X066320Y012000
X068860Y012000
X071400Y012000
X073940Y012000
X076480Y012000
X079020Y012000
X081560Y012000
X084100Y012000
X086640Y012000
X046000Y027240
X048540Y027240
X051080Y027240
X053620Y027240
X056160Y027240
X058700Y027240
X061240Y027240
X063780Y027240
X066320Y027240
X068860Y027240
X071400Y027240
X073940Y027240
X076480Y027240
X079020Y027240
X081560Y027240
X084100Y027240
X086640Y027240
X051080Y035000
X053620Y035000
X056160Y035000
X058700Y035000
X061240Y035000
X063780Y035000
X051080Y047700
X053620Y047700
X056160Y047700
X058700Y047700
X061240Y047700
X063780Y047700
X046000Y045000
X048540Y045000
X051080Y045000
X053620Y045000
X056160Y045000
X058700Y045000
X061240Y045000
X063780Y045000
X066320Y045000
X068860Y045000
X071400Y045000
X073940Y045000
X076480Y045000
X079020Y045000
X081560Y045000
X046000Y054000
X048540Y054000
X051080Y054000
X053620Y054000
X056160Y054000
X058700Y054000
X061240Y054000
X063780Y054000
X066320Y054000
X068860Y054000
X071400Y054000
X073940Y054000
X076480Y054000
X079020Y054000
X081560Y054000
M30
