<svg xmlns="http://www.w3.org/2000/svg" viewBox="0 0 1180 840" width="100%" height="100%" style="background-color: #0d1117; font-family: -apple-system, BlinkMacSystemFont, Segoe UI, sans-serif;">
  <defs>
    <filter id="pcb-shadow" x="-5%" y="-5%" width="110%" height="110%">
      <feDropShadow dx="3" dy="5" stdDeviation="6" flood-color="#000" flood-opacity="0.7"/>
    </filter>
  </defs>
  <text x="50" y="40" font-size="20" font-weight="700" fill="#ffffff">Stiebel Eltron LWZ 180 Custom PCB — BOTTOM LAYER (Lötseite)</text>
  <text x="50" y="60" font-size="12" fill="#8b949e">Abmessungen: 90.0 × 60.0 mm · 2-Layer FR4 · 1.6mm · Industriestandard JLCPCB / AISLER ready</text>
  <g transform="translate(50, 75)" filter="url(#pcb-shadow)">
    <!-- PCB Board FR4 Base -->
    <rect x="0" y="0" width="1080" height="720" rx="36.0" fill="#1b4d2e" stroke="#2e7d32" stroke-width="2"/>
    <line x1="331.44" y1="0" x2="331.44" y2="720" stroke="#e53935" stroke-width="3" stroke-dasharray="10,6"/>
    <text x="321.44" y="700" font-size="12" font-weight="700" fill="#ef5350" text-anchor="end" transform="rotate(-90 321.44 700)">GALVANISCHE TRENNUNG (&gt;6mm)</text>
    <line x1="96.0" y1="451.43999999999994" x2="96.0" y2="314.28000000000003" stroke="#4fc3f7" stroke-width="4.800000000000001" stroke-linecap="round" opacity="0.85"/>
    <line x1="96.0" y1="314.28000000000003" x2="240.0" y2="314.28000000000003" stroke="#4fc3f7" stroke-width="4.800000000000001" stroke-linecap="round" opacity="0.85"/>
    <line x1="96.0" y1="390.48" x2="96.0" y2="375.24" stroke="#4fc3f7" stroke-width="4.800000000000001" stroke-linecap="round" opacity="0.85"/>
    <line x1="96.0" y1="375.24" x2="240.0" y2="375.24" stroke="#4fc3f7" stroke-width="4.800000000000001" stroke-linecap="round" opacity="0.85"/>
    <line x1="96.0" y1="329.52" x2="96.0" y2="405.72" stroke="#4fc3f7" stroke-width="4.800000000000001" stroke-linecap="round" opacity="0.85"/>
    <line x1="96.0" y1="405.72" x2="240.0" y2="405.72" stroke="#4fc3f7" stroke-width="4.800000000000001" stroke-linecap="round" opacity="0.85"/>
    <line x1="96.0" y1="268.56" x2="96.0" y2="344.76" stroke="#4fc3f7" stroke-width="4.800000000000001" stroke-linecap="round" opacity="0.85"/>
    <line x1="96.0" y1="344.76" x2="240.0" y2="344.76" stroke="#4fc3f7" stroke-width="4.800000000000001" stroke-linecap="round" opacity="0.85"/>
    <line x1="422.88" y1="344.76" x2="422.88" y2="144.0" stroke="#4fc3f7" stroke-width="4.800000000000001" stroke-linecap="round" opacity="0.85"/>
    <line x1="422.88" y1="144.0" x2="734.88" y2="144.0" stroke="#4fc3f7" stroke-width="4.800000000000001" stroke-linecap="round" opacity="0.85"/>
    <line x1="978.72" y1="648.0" x2="978.72" y2="326.88" stroke="#4fc3f7" stroke-width="9.600000000000001" stroke-linecap="round" opacity="0.85"/>
    <line x1="978.72" y1="326.88" x2="643.4399999999999" y2="326.88" stroke="#4fc3f7" stroke-width="9.600000000000001" stroke-linecap="round" opacity="0.85"/>
    <line x1="643.4399999999999" y1="326.88" x2="643.4399999999999" y2="420.0" stroke="#4fc3f7" stroke-width="9.600000000000001" stroke-linecap="round" opacity="0.85"/>
    <line x1="643.4399999999999" y1="420.0" x2="612.96" y2="420.0" stroke="#4fc3f7" stroke-width="9.600000000000001" stroke-linecap="round" opacity="0.85"/>
    <line x1="978.72" y1="540.0" x2="978.72" y2="572.4000000000001" stroke="#4fc3f7" stroke-width="9.600000000000001" stroke-linecap="round" opacity="0.85"/>
    <line x1="978.72" y1="572.4000000000001" x2="612.96" y2="572.4000000000001" stroke="#4fc3f7" stroke-width="9.600000000000001" stroke-linecap="round" opacity="0.85"/>
    <line x1="948.2400000000001" y1="540.0" x2="948.2400000000001" y2="572.4000000000001" stroke="#4fc3f7" stroke-width="9.600000000000001" stroke-linecap="round" opacity="0.85"/>
    <line x1="948.2400000000001" y1="572.4000000000001" x2="643.4399999999999" y2="572.4000000000001" stroke="#4fc3f7" stroke-width="9.600000000000001" stroke-linecap="round" opacity="0.85"/>
    <line x1="643.4399999999999" y1="420.0" x2="643.4399999999999" y2="144.0" stroke="#4fc3f7" stroke-width="9.600000000000001" stroke-linecap="round" opacity="0.85"/>
    <line x1="643.4399999999999" y1="144.0" x2="704.4000000000001" y2="144.0" stroke="#4fc3f7" stroke-width="9.600000000000001" stroke-linecap="round" opacity="0.85"/>
    <line x1="673.92" y1="572.4000000000001" x2="673.92" y2="540.0" stroke="#4fc3f7" stroke-width="4.800000000000001" stroke-linecap="round" opacity="0.85"/>
    <line x1="673.92" y1="540.0" x2="826.3199999999999" y2="540.0" stroke="#4fc3f7" stroke-width="4.800000000000001" stroke-linecap="round" opacity="0.85"/>
    <line x1="795.8399999999999" y1="540.0" x2="795.8399999999999" y2="572.4000000000001" stroke="#4fc3f7" stroke-width="4.800000000000001" stroke-linecap="round" opacity="0.85"/>
    <line x1="795.8399999999999" y1="572.4000000000001" x2="704.4" y2="572.4000000000001" stroke="#4fc3f7" stroke-width="4.800000000000001" stroke-linecap="round" opacity="0.85"/>
    <line x1="856.8000000000001" y1="540.0" x2="856.8000000000001" y2="572.4000000000001" stroke="#4fc3f7" stroke-width="4.800000000000001" stroke-linecap="round" opacity="0.85"/>
    <line x1="856.8000000000001" y1="572.4000000000001" x2="734.8799999999999" y2="572.4000000000001" stroke="#4fc3f7" stroke-width="4.800000000000001" stroke-linecap="round" opacity="0.85"/>
    <circle cx="48.0" cy="48.0" r="36.0" fill="#d4af37" stroke="#b89428" stroke-width="1"/>
    <circle cx="48.0" cy="48.0" r="19.200000000000003" fill="#12151a"/>
    <circle cx="1032.0" cy="48.0" r="36.0" fill="#d4af37" stroke="#b89428" stroke-width="1"/>
    <circle cx="1032.0" cy="48.0" r="19.200000000000003" fill="#12151a"/>
    <circle cx="48.0" cy="672.0" r="36.0" fill="#d4af37" stroke="#b89428" stroke-width="1"/>
    <circle cx="48.0" cy="672.0" r="19.200000000000003" fill="#12151a"/>
    <circle cx="1032.0" cy="672.0" r="36.0" fill="#d4af37" stroke="#b89428" stroke-width="1"/>
    <circle cx="1032.0" cy="672.0" r="19.200000000000003" fill="#12151a"/>
    <circle cx="96.0" cy="451.43999999999994" r="16.799999999999997" fill="#d4af37" stroke="#b89428" stroke-width="1"/>
    <circle cx="96.0" cy="451.43999999999994" r="8.399999999999999" fill="#12151a"/>
    <circle cx="96.0" cy="390.48" r="16.799999999999997" fill="#d4af37" stroke="#b89428" stroke-width="1"/>
    <circle cx="96.0" cy="390.48" r="8.399999999999999" fill="#12151a"/>
    <circle cx="96.0" cy="329.52" r="16.799999999999997" fill="#d4af37" stroke="#b89428" stroke-width="1"/>
    <circle cx="96.0" cy="329.52" r="8.399999999999999" fill="#12151a"/>
    <circle cx="96.0" cy="268.56" r="16.799999999999997" fill="#d4af37" stroke="#b89428" stroke-width="1"/>
    <circle cx="96.0" cy="268.56" r="8.399999999999999" fill="#12151a"/>
    <circle cx="240.0" cy="405.72" r="10.2" fill="#d4af37" stroke="#b89428" stroke-width="1"/>
    <circle cx="240.0" cy="405.72" r="6.0" fill="#12151a"/>
    <circle cx="240.0" cy="375.24" r="10.2" fill="#d4af37" stroke="#b89428" stroke-width="1"/>
    <circle cx="240.0" cy="375.24" r="6.0" fill="#12151a"/>
    <circle cx="240.0" cy="344.76" r="10.2" fill="#d4af37" stroke="#b89428" stroke-width="1"/>
    <circle cx="240.0" cy="344.76" r="6.0" fill="#12151a"/>
    <circle cx="240.0" cy="314.28000000000003" r="10.2" fill="#d4af37" stroke="#b89428" stroke-width="1"/>
    <circle cx="240.0" cy="314.28000000000003" r="6.0" fill="#12151a"/>
    <circle cx="422.88" cy="405.72" r="10.2" fill="#d4af37" stroke="#b89428" stroke-width="1"/>
    <circle cx="422.88" cy="405.72" r="6.0" fill="#12151a"/>
    <circle cx="422.88" cy="375.24" r="10.2" fill="#d4af37" stroke="#b89428" stroke-width="1"/>
    <circle cx="422.88" cy="375.24" r="6.0" fill="#12151a"/>
    <circle cx="422.88" cy="344.76" r="10.2" fill="#d4af37" stroke="#b89428" stroke-width="1"/>
    <circle cx="422.88" cy="344.76" r="6.0" fill="#12151a"/>
    <circle cx="422.88" cy="314.28000000000003" r="10.2" fill="#d4af37" stroke="#b89428" stroke-width="1"/>
    <circle cx="422.88" cy="314.28000000000003" r="6.0" fill="#12151a"/>
    <circle cx="552.0" cy="144.0" r="10.2" fill="#d4af37" stroke="#b89428" stroke-width="1"/>
    <circle cx="552.0" cy="144.0" r="6.0" fill="#12151a"/>
    <circle cx="582.48" cy="144.0" r="10.2" fill="#d4af37" stroke="#b89428" stroke-width="1"/>
    <circle cx="582.48" cy="144.0" r="6.0" fill="#12151a"/>
    <circle cx="612.96" cy="144.0" r="10.2" fill="#d4af37" stroke="#b89428" stroke-width="1"/>
    <circle cx="612.96" cy="144.0" r="6.0" fill="#12151a"/>
    <circle cx="643.4399999999999" cy="144.0" r="10.2" fill="#d4af37" stroke="#b89428" stroke-width="1"/>
    <circle cx="643.4399999999999" cy="144.0" r="6.0" fill="#12151a"/>
    <circle cx="673.92" cy="144.0" r="10.2" fill="#d4af37" stroke="#b89428" stroke-width="1"/>
    <circle cx="673.92" cy="144.0" r="6.0" fill="#12151a"/>
    <circle cx="704.4000000000001" cy="144.0" r="10.2" fill="#d4af37" stroke="#b89428" stroke-width="1"/>
    <circle cx="704.4000000000001" cy="144.0" r="6.0" fill="#12151a"/>
    <circle cx="734.88" cy="144.0" r="10.2" fill="#d4af37" stroke="#b89428" stroke-width="1"/>
    <circle cx="734.88" cy="144.0" r="6.0" fill="#12151a"/>
    <circle cx="765.36" cy="144.0" r="10.2" fill="#d4af37" stroke="#b89428" stroke-width="1"/>
    <circle cx="765.36" cy="144.0" r="6.0" fill="#12151a"/>
    <circle cx="795.8399999999999" cy="144.0" r="10.2" fill="#d4af37" stroke="#b89428" stroke-width="1"/>
    <circle cx="795.8399999999999" cy="144.0" r="6.0" fill="#12151a"/>
    <circle cx="826.3199999999999" cy="144.0" r="10.2" fill="#d4af37" stroke="#b89428" stroke-width="1"/>
    <circle cx="826.3199999999999" cy="144.0" r="6.0" fill="#12151a"/>
    <circle cx="856.8000000000001" cy="144.0" r="10.2" fill="#d4af37" stroke="#b89428" stroke-width="1"/>
    <circle cx="856.8000000000001" cy="144.0" r="6.0" fill="#12151a"/>
    <circle cx="887.28" cy="144.0" r="10.2" fill="#d4af37" stroke="#b89428" stroke-width="1"/>
    <circle cx="887.28" cy="144.0" r="6.0" fill="#12151a"/>
    <circle cx="917.76" cy="144.0" r="10.2" fill="#d4af37" stroke="#b89428" stroke-width="1"/>
    <circle cx="917.76" cy="144.0" r="6.0" fill="#12151a"/>
    <circle cx="948.2400000000001" cy="144.0" r="10.2" fill="#d4af37" stroke="#b89428" stroke-width="1"/>
    <circle cx="948.2400000000001" cy="144.0" r="6.0" fill="#12151a"/>
    <circle cx="978.72" cy="144.0" r="10.2" fill="#d4af37" stroke="#b89428" stroke-width="1"/>
    <circle cx="978.72" cy="144.0" r="6.0" fill="#12151a"/>
    <circle cx="1009.1999999999999" cy="144.0" r="10.2" fill="#d4af37" stroke="#b89428" stroke-width="1"/>
    <circle cx="1009.1999999999999" cy="144.0" r="6.0" fill="#12151a"/>
    <circle cx="1039.68" cy="144.0" r="10.2" fill="#d4af37" stroke="#b89428" stroke-width="1"/>
    <circle cx="1039.68" cy="144.0" r="6.0" fill="#12151a"/>
    <circle cx="552.0" cy="326.88" r="10.2" fill="#d4af37" stroke="#b89428" stroke-width="1"/>
    <circle cx="552.0" cy="326.88" r="6.0" fill="#12151a"/>
    <circle cx="582.48" cy="326.88" r="10.2" fill="#d4af37" stroke="#b89428" stroke-width="1"/>
    <circle cx="582.48" cy="326.88" r="6.0" fill="#12151a"/>
    <circle cx="612.96" cy="326.88" r="10.2" fill="#d4af37" stroke="#b89428" stroke-width="1"/>
    <circle cx="612.96" cy="326.88" r="6.0" fill="#12151a"/>
    <circle cx="643.4399999999999" cy="326.88" r="10.2" fill="#d4af37" stroke="#b89428" stroke-width="1"/>
    <circle cx="643.4399999999999" cy="326.88" r="6.0" fill="#12151a"/>
    <circle cx="673.92" cy="326.88" r="10.2" fill="#d4af37" stroke="#b89428" stroke-width="1"/>
    <circle cx="673.92" cy="326.88" r="6.0" fill="#12151a"/>
    <circle cx="704.4000000000001" cy="326.88" r="10.2" fill="#d4af37" stroke="#b89428" stroke-width="1"/>
    <circle cx="704.4000000000001" cy="326.88" r="6.0" fill="#12151a"/>
    <circle cx="734.88" cy="326.88" r="10.2" fill="#d4af37" stroke="#b89428" stroke-width="1"/>
    <circle cx="734.88" cy="326.88" r="6.0" fill="#12151a"/>
    <circle cx="765.36" cy="326.88" r="10.2" fill="#d4af37" stroke="#b89428" stroke-width="1"/>
    <circle cx="765.36" cy="326.88" r="6.0" fill="#12151a"/>
    <circle cx="795.8399999999999" cy="326.88" r="10.2" fill="#d4af37" stroke="#b89428" stroke-width="1"/>
    <circle cx="795.8399999999999" cy="326.88" r="6.0" fill="#12151a"/>
    <circle cx="826.3199999999999" cy="326.88" r="10.2" fill="#d4af37" stroke="#b89428" stroke-width="1"/>
    <circle cx="826.3199999999999" cy="326.88" r="6.0" fill="#12151a"/>
    <circle cx="856.8000000000001" cy="326.88" r="10.2" fill="#d4af37" stroke="#b89428" stroke-width="1"/>
    <circle cx="856.8000000000001" cy="326.88" r="6.0" fill="#12151a"/>
    <circle cx="887.28" cy="326.88" r="10.2" fill="#d4af37" stroke="#b89428" stroke-width="1"/>
    <circle cx="887.28" cy="326.88" r="6.0" fill="#12151a"/>
    <circle cx="917.76" cy="326.88" r="10.2" fill="#d4af37" stroke="#b89428" stroke-width="1"/>
    <circle cx="917.76" cy="326.88" r="6.0" fill="#12151a"/>
    <circle cx="948.2400000000001" cy="326.88" r="10.2" fill="#d4af37" stroke="#b89428" stroke-width="1"/>
    <circle cx="948.2400000000001" cy="326.88" r="6.0" fill="#12151a"/>
    <circle cx="978.72" cy="326.88" r="10.2" fill="#d4af37" stroke="#b89428" stroke-width="1"/>
    <circle cx="978.72" cy="326.88" r="6.0" fill="#12151a"/>
    <circle cx="1009.1999999999999" cy="326.88" r="10.2" fill="#d4af37" stroke="#b89428" stroke-width="1"/>
    <circle cx="1009.1999999999999" cy="326.88" r="6.0" fill="#12151a"/>
    <circle cx="1039.68" cy="326.88" r="10.2" fill="#d4af37" stroke="#b89428" stroke-width="1"/>
    <circle cx="1039.68" cy="326.88" r="6.0" fill="#12151a"/>
    <circle cx="612.96" cy="420.0" r="10.2" fill="#d4af37" stroke="#b89428" stroke-width="1"/>
    <circle cx="612.96" cy="420.0" r="6.0" fill="#12151a"/>
    <circle cx="643.4399999999999" cy="420.0" r="10.2" fill="#d4af37" stroke="#b89428" stroke-width="1"/>
    <circle cx="643.4399999999999" cy="420.0" r="6.0" fill="#12151a"/>
    <circle cx="673.92" cy="420.0" r="10.2" fill="#d4af37" stroke="#b89428" stroke-width="1"/>
    <circle cx="673.92" cy="420.0" r="6.0" fill="#12151a"/>
    <circle cx="704.4" cy="420.0" r="10.2" fill="#d4af37" stroke="#b89428" stroke-width="1"/>
    <circle cx="704.4" cy="420.0" r="6.0" fill="#12151a"/>
    <circle cx="734.8799999999999" cy="420.0" r="10.2" fill="#d4af37" stroke="#b89428" stroke-width="1"/>
    <circle cx="734.8799999999999" cy="420.0" r="6.0" fill="#12151a"/>
    <circle cx="765.36" cy="420.0" r="10.2" fill="#d4af37" stroke="#b89428" stroke-width="1"/>
    <circle cx="765.36" cy="420.0" r="6.0" fill="#12151a"/>
    <circle cx="612.96" cy="572.4000000000001" r="10.2" fill="#d4af37" stroke="#b89428" stroke-width="1"/>
    <circle cx="612.96" cy="572.4000000000001" r="6.0" fill="#12151a"/>
    <circle cx="643.4399999999999" cy="572.4000000000001" r="10.2" fill="#d4af37" stroke="#b89428" stroke-width="1"/>
    <circle cx="643.4399999999999" cy="572.4000000000001" r="6.0" fill="#12151a"/>
    <circle cx="673.92" cy="572.4000000000001" r="10.2" fill="#d4af37" stroke="#b89428" stroke-width="1"/>
    <circle cx="673.92" cy="572.4000000000001" r="6.0" fill="#12151a"/>
    <circle cx="704.4" cy="572.4000000000001" r="10.2" fill="#d4af37" stroke="#b89428" stroke-width="1"/>
    <circle cx="704.4" cy="572.4000000000001" r="6.0" fill="#12151a"/>
    <circle cx="734.8799999999999" cy="572.4000000000001" r="10.2" fill="#d4af37" stroke="#b89428" stroke-width="1"/>
    <circle cx="734.8799999999999" cy="572.4000000000001" r="6.0" fill="#12151a"/>
    <circle cx="765.36" cy="572.4000000000001" r="10.2" fill="#d4af37" stroke="#b89428" stroke-width="1"/>
    <circle cx="765.36" cy="572.4000000000001" r="6.0" fill="#12151a"/>
    <circle cx="552.0" cy="540.0" r="10.2" fill="#d4af37" stroke="#b89428" stroke-width="1"/>
    <circle cx="552.0" cy="540.0" r="6.0" fill="#12151a"/>
    <circle cx="582.48" cy="540.0" r="10.2" fill="#d4af37" stroke="#b89428" stroke-width="1"/>
    <circle cx="582.48" cy="540.0" r="6.0" fill="#12151a"/>
    <circle cx="612.96" cy="540.0" r="10.2" fill="#d4af37" stroke="#b89428" stroke-width="1"/>
    <circle cx="612.96" cy="540.0" r="6.0" fill="#12151a"/>
    <circle cx="643.4399999999999" cy="540.0" r="10.2" fill="#d4af37" stroke="#b89428" stroke-width="1"/>
    <circle cx="643.4399999999999" cy="540.0" r="6.0" fill="#12151a"/>
    <circle cx="673.92" cy="540.0" r="10.2" fill="#d4af37" stroke="#b89428" stroke-width="1"/>
    <circle cx="673.92" cy="540.0" r="6.0" fill="#12151a"/>
    <circle cx="704.4000000000001" cy="540.0" r="10.2" fill="#d4af37" stroke="#b89428" stroke-width="1"/>
    <circle cx="704.4000000000001" cy="540.0" r="6.0" fill="#12151a"/>
    <circle cx="734.88" cy="540.0" r="10.2" fill="#d4af37" stroke="#b89428" stroke-width="1"/>
    <circle cx="734.88" cy="540.0" r="6.0" fill="#12151a"/>
    <circle cx="765.36" cy="540.0" r="10.2" fill="#d4af37" stroke="#b89428" stroke-width="1"/>
    <circle cx="765.36" cy="540.0" r="6.0" fill="#12151a"/>
    <circle cx="795.8399999999999" cy="540.0" r="10.2" fill="#d4af37" stroke="#b89428" stroke-width="1"/>
    <circle cx="795.8399999999999" cy="540.0" r="6.0" fill="#12151a"/>
    <circle cx="826.3199999999999" cy="540.0" r="10.2" fill="#d4af37" stroke="#b89428" stroke-width="1"/>
    <circle cx="826.3199999999999" cy="540.0" r="6.0" fill="#12151a"/>
    <circle cx="856.8000000000001" cy="540.0" r="10.2" fill="#d4af37" stroke="#b89428" stroke-width="1"/>
    <circle cx="856.8000000000001" cy="540.0" r="6.0" fill="#12151a"/>
    <circle cx="887.28" cy="540.0" r="10.2" fill="#d4af37" stroke="#b89428" stroke-width="1"/>
    <circle cx="887.28" cy="540.0" r="6.0" fill="#12151a"/>
    <circle cx="917.76" cy="540.0" r="10.2" fill="#d4af37" stroke="#b89428" stroke-width="1"/>
    <circle cx="917.76" cy="540.0" r="6.0" fill="#12151a"/>
    <circle cx="948.2400000000001" cy="540.0" r="10.2" fill="#d4af37" stroke="#b89428" stroke-width="1"/>
    <circle cx="948.2400000000001" cy="540.0" r="6.0" fill="#12151a"/>
    <circle cx="978.72" cy="540.0" r="10.2" fill="#d4af37" stroke="#b89428" stroke-width="1"/>
    <circle cx="978.72" cy="540.0" r="6.0" fill="#12151a"/>
    <circle cx="552.0" cy="648.0" r="10.2" fill="#d4af37" stroke="#b89428" stroke-width="1"/>
    <circle cx="552.0" cy="648.0" r="6.0" fill="#12151a"/>
    <circle cx="582.48" cy="648.0" r="10.2" fill="#d4af37" stroke="#b89428" stroke-width="1"/>
    <circle cx="582.48" cy="648.0" r="6.0" fill="#12151a"/>
    <circle cx="612.96" cy="648.0" r="10.2" fill="#d4af37" stroke="#b89428" stroke-width="1"/>
    <circle cx="612.96" cy="648.0" r="6.0" fill="#12151a"/>
    <circle cx="643.4399999999999" cy="648.0" r="10.2" fill="#d4af37" stroke="#b89428" stroke-width="1"/>
    <circle cx="643.4399999999999" cy="648.0" r="6.0" fill="#12151a"/>
    <circle cx="673.92" cy="648.0" r="10.2" fill="#d4af37" stroke="#b89428" stroke-width="1"/>
    <circle cx="673.92" cy="648.0" r="6.0" fill="#12151a"/>
    <circle cx="704.4000000000001" cy="648.0" r="10.2" fill="#d4af37" stroke="#b89428" stroke-width="1"/>
    <circle cx="704.4000000000001" cy="648.0" r="6.0" fill="#12151a"/>
    <circle cx="734.88" cy="648.0" r="10.2" fill="#d4af37" stroke="#b89428" stroke-width="1"/>
    <circle cx="734.88" cy="648.0" r="6.0" fill="#12151a"/>
    <circle cx="765.36" cy="648.0" r="10.2" fill="#d4af37" stroke="#b89428" stroke-width="1"/>
    <circle cx="765.36" cy="648.0" r="6.0" fill="#12151a"/>
    <circle cx="795.8399999999999" cy="648.0" r="10.2" fill="#d4af37" stroke="#b89428" stroke-width="1"/>
    <circle cx="795.8399999999999" cy="648.0" r="6.0" fill="#12151a"/>
    <circle cx="826.3199999999999" cy="648.0" r="10.2" fill="#d4af37" stroke="#b89428" stroke-width="1"/>
    <circle cx="826.3199999999999" cy="648.0" r="6.0" fill="#12151a"/>
    <circle cx="856.8000000000001" cy="648.0" r="10.2" fill="#d4af37" stroke="#b89428" stroke-width="1"/>
    <circle cx="856.8000000000001" cy="648.0" r="6.0" fill="#12151a"/>
    <circle cx="887.28" cy="648.0" r="10.2" fill="#d4af37" stroke="#b89428" stroke-width="1"/>
    <circle cx="887.28" cy="648.0" r="6.0" fill="#12151a"/>
    <circle cx="917.76" cy="648.0" r="10.2" fill="#d4af37" stroke="#b89428" stroke-width="1"/>
    <circle cx="917.76" cy="648.0" r="6.0" fill="#12151a"/>
    <circle cx="948.2400000000001" cy="648.0" r="10.2" fill="#d4af37" stroke="#b89428" stroke-width="1"/>
    <circle cx="948.2400000000001" cy="648.0" r="6.0" fill="#12151a"/>
    <circle cx="978.72" cy="648.0" r="10.2" fill="#d4af37" stroke="#b89428" stroke-width="1"/>
    <circle cx="978.72" cy="648.0" r="6.0" fill="#12151a"/>
  </g>
</svg>
